<svg xmlns="http://www.w3.org/2000/svg" viewBox="0 0 237.11 237.11"><defs><style>.cls-1{fill:#fff;}</style></defs><title>personal-Icon</title><g id="colores"><rect class="cls-1" width="237.11" height="237.11" rx="118.55"/></g><g id="Capa_1" data-name="Capa 1"><path d="M84,206.86a1.77,1.77,0,0,1-1.77,1.77H80.11a63.75,63.75,0,0,1-6.77-.26,12.89,12.89,0,0,1-4.82-1.79,15.85,15.85,0,0,1-5.9-5.86A29,29,0,0,1,59.2,191a74.79,74.79,0,0,1-1.08-13.46q0-17.79-.52-25.65T54,139q-2.76-4.5-8.87-5.26a1.77,1.77,0,0,1-1.56-1.75V121.16a1.76,1.76,0,0,1,1.56-1.75q6.1-.78,8.87-5.3,3.11-5.08,3.63-13t.52-25.69A74.09,74.09,0,0,1,59.2,62a28.46,28.46,0,0,1,3.39-9.62,16.16,16.16,0,0,1,5.93-5.86,15.2,15.2,0,0,1,3.8-1.62A16.6,16.6,0,0,1,76,44.3c1.16-.06,2.53-.09,4.12-.09h2.13A1.78,1.78,0,0,1,84,46V57.72H81.85q-5,0-7.5,1.33a7.55,7.55,0,0,0-3.49,5,46.28,46.28,0,0,0-1,11.37v12.4a114.93,114.93,0,0,1-1.22,18.29,33.32,33.32,0,0,1-4.37,12.36,21.61,21.61,0,0,1-6.69,6.67,1.77,1.77,0,0,0-.06,2.92A25.34,25.34,0,0,1,64,134.33a30,30,0,0,1,4.54,11.8A106.89,106.89,0,0,1,69.85,165v12.66q0,7.69,1,11.33a7.32,7.32,0,0,0,3.52,4.91q2.52,1.29,7.47,1.29h.39A1.77,1.77,0,0,1,84,197Z" transform="translate(-9.45 -7.87)"/><path d="M131.42,132.8c1.29-2.6-1.77-5.15-3.52-2.93-2.05,2.61-4,5.09-5.82,7.44q-8.51,10.94-13.36,17.22t-8.55,10.63c-2.47,2.9-4,4.35-4.73,4.35q-2,.12-3.78-5.74a33.91,33.91,0,0,1-1.8-9.36q0-2.29,5.45-10.81t8.17-13.6a22.3,22.3,0,0,0,2.7-10.63,8.26,8.26,0,0,0-1.55-5.25,4.55,4.55,0,0,0-3.69-2q-2.49,0-6,3.63-2.53,2.64-7.18,8.28c-1.36,1.65-3.78.55-3.78-1.72V121a2.76,2.76,0,0,1,.55-1.66q7.16-9.45,13-16.38A79.4,79.4,0,0,1,108.2,92.25c3-2.38,5.51-3.57,7.52-3.57,1.78,0,3.26.95,4.47,2.84a13,13,0,0,1,1.8,7.07,35,35,0,0,1-1,8.34,93.64,93.64,0,0,1-3.18,10q-2.15,5.8-5.67,14l-.07.16c-1.13,2.62,1.88,5,3.59,2.79q2.94-3.74,5.59-7.36,6.78-9.3,11.08-16.25t6.79-10.93q4.82-7.5,8.93-7.49c3,0,4.47,3,4.47,8.94q0,3.62-3.35,13t-9.54,23.86a6.83,6.83,0,0,0-.51,3c0,1.61.57,2.41,1.72,2.41s3.08-1.67,5.45-5,7-10.33,13.79-21a129.72,129.72,0,0,0,6.4-11.66q3.57-7.2,5.12-9.61c1-1.61,2.06-2.41,3.09-2.41q3.09,0,5.75,7.73a55.1,55.1,0,0,1,2.67,18,42.33,42.33,0,0,1-1.76,12.93,134.7,134.7,0,0,1-5.46,13.53q-5.76,11.72-9.41,16.73t-7.69,5a6.53,6.53,0,0,1-4.21-1.39,4.65,4.65,0,0,1-1.71-3.81q0-2.53,3.13-8.34a86.53,86.53,0,0,1,7.95-12,47.55,47.55,0,0,0,4.9-8.64c1.54-3.42,2.32-5.9,2.32-7.43,0-2.17-.61-3.26-1.81-3.26q-1.46,0-7.39,8.46t-13,18.42A171.42,171.42,0,0,1,135.78,166q-6.06,6.59-10.27,6.58a4.93,4.93,0,0,1-4.25-2.72,12.5,12.5,0,0,1-1.67-6.7q0-2.67,2.57-9.61t7.52-17.15C130.23,135.2,130.81,134,131.42,132.8Z" transform="translate(-9.45 -7.87)"/><path d="M178.58,46a1.78,1.78,0,0,1,1.78-1.78h2.06a42.34,42.34,0,0,1,6.56.43,13.17,13.17,0,0,1,5,1.88,15.36,15.36,0,0,1,6,5.81A29.3,29.3,0,0,1,203.39,62a74.09,74.09,0,0,1,1.08,13.42q0,17.61.53,25.61t3.59,13.12q2.73,4.56,8.89,5.27a1.78,1.78,0,0,1,1.58,1.76v10.74a1.78,1.78,0,0,1-1.58,1.76q-6.16.7-8.89,5.27Q205.52,144.08,205,152t-.53,25.48A74.79,74.79,0,0,1,203.39,191a28.6,28.6,0,0,1-3.45,9.75,16,16,0,0,1-5.94,5.86,13.12,13.12,0,0,1-5.12,1.75,58.27,58.27,0,0,1-6.46.3h-2.06a1.78,1.78,0,0,1-1.78-1.77V197a1.78,1.78,0,0,1,1.78-1.77h.39c3.34,0,5.85-.43,7.5-1.29s2.81-2.51,3.49-5a46.28,46.28,0,0,0,1-11.28V165q0-16.58,3-25.35a22.12,22.12,0,0,1,9.18-11.74,1.76,1.76,0,0,0,0-2.9,27,27,0,0,1-4.59-4,23.62,23.62,0,0,1-4.47-7.43A43.73,43.73,0,0,1,193.48,103a132,132,0,0,1-.73-15.17V75.42a46.37,46.37,0,0,0-1-11.29,7.74,7.74,0,0,0-3.49-5c-1.65-.91-4.16-1.37-7.5-1.37h-.39A1.78,1.78,0,0,1,178.58,56Z" transform="translate(-9.45 -7.87)"/></g></svg>