<svg id="Capa_1" data-name="Capa 1" xmlns="http://www.w3.org/2000/svg" xmlns:xlink="http://www.w3.org/1999/xlink" viewBox="0 0 255.33 254.55"><defs><style>.cls-1,.cls-10,.cls-11,.cls-2,.cls-3,.cls-4,.cls-7,.cls-8,.cls-9{stroke:#000;stroke-miterlimit:10;}.cls-1,.cls-10{stroke-width:0.25px;}.cls-1{fill:url(#Degradado_sin_nombre_18);}.cls-2{fill:#ff0;}.cls-11,.cls-2,.cls-3,.cls-4,.cls-8,.cls-9{stroke-width:2px;}.cls-4{fill:gray;}.cls-5,.cls-6{font-size:21px;font-family:MyriadPro-Regular, Myriad Pro;}.cls-5,.cls-7{fill:#fff;}.cls-8{fill:url(#Degradado_sin_nombre_18-2);}.cls-9{fill:url(#Degradado_sin_nombre_18-3);}.cls-10{fill:#1a1a1a;}.cls-11{fill:none;}</style><linearGradient id="Degradado_sin_nombre_18" x1="0.13" y1="127.27" x2="255.2" y2="127.27" gradientUnits="userSpaceOnUse"><stop offset="1" stop-color="#fff"/><stop offset="1" stop-color="#fdfdfd"/><stop offset="1" stop-color="#f6f6f6"/><stop offset="1" stop-color="#ebebeb"/><stop offset="1" stop-color="#dadada"/><stop offset="1" stop-color="#c4c4c4"/><stop offset="1" stop-color="#a8a8a8"/><stop offset="1" stop-color="#888"/><stop offset="1" stop-color="#626262"/><stop offset="1" stop-color="#373737"/><stop offset="1" stop-color="#090909"/><stop offset="1"/></linearGradient><linearGradient id="Degradado_sin_nombre_18-2" x1="107.12" y1="114.41" x2="115.52" y2="114.41" xlink:href="#Degradado_sin_nombre_18"/><linearGradient id="Degradado_sin_nombre_18-3" x1="143.68" y1="114.65" x2="152.08" y2="114.65" xlink:href="#Degradado_sin_nombre_18"/></defs><title>favicon</title><ellipse class="cls-1" cx="127.66" cy="127.27" rx="127.54" ry="127.15"/><polygon class="cls-2" points="127.5 3.47 26.44 197.61 228.55 197.61 127.5 3.47"/><path class="cls-3" d="M165.17,184.12l-72.69.24C84.8,154.89,85.76,158.6,79,133.48h98.41S166.4,179.77,165.17,184.12Z" transform="translate(-0.84 -2.03)"/><rect class="cls-3" x="92.29" y="184.85" width="71.84" height="1" rx="0.5"/><ellipse class="cls-4" cx="127.72" cy="159.05" rx="19.8" ry="19.44"/><text class="cls-5" transform="translate(119.41 163.13)">M</text><text class="cls-6" transform="translate(118.52 162.89)">M</text><path class="cls-7" d="M121.92,124.88h-21.2L96.8,121v-9.68l3.92-3.92h21.2l3.92,3.92V121Z" transform="translate(-0.84 -2.03)"/><path class="cls-7" d="M161.88,124.92h-21.2L136.76,121v-9.68l3.92-3.92h21.2l3.92,3.92V121Z" transform="translate(-0.84 -2.03)"/><ellipse class="cls-8" cx="111.32" cy="114.41" rx="4.2" ry="4.08"/><ellipse class="cls-9" cx="147.88" cy="114.65" rx="4.2" ry="4.08"/><circle class="cls-10" cx="147.6" cy="114.25" r="1.56"/><path class="cls-11" d="M125.86,115.35a26.64,26.64,0,0,1,5.46-1.79,9,9,0,0,1,5.62.63c.4.21.75.89.31,1" transform="translate(-0.84 -2.03)"/><circle class="cls-10" cx="111.6" cy="114.25" r="1.56"/></svg>